# xmcd
#
# Track frame offsets:
#	150
#	19875
#	36624
#	54708
#	75081
#	97738
#	114421
#
# Disc length: 1788 seconds
#
# Revision: 0
# Processed by: cddbd v1.5.2PL0 Copyright (c) Steve Scherf et al.
# Submitted via: EasyCDDAExtractor 16.0.6.1
#
DISCID=4b06fa07
DTITLE=Trà My IDOL - Trà My IDOL: Trà My IDOL Vol.2
DYEAR=2012
DGENRE=Alternative
TTITLE0=Trà My IDOL Feat. Tiến Dũng - Vì Sao Anh Không Đến
TTITLE1=Trà My IDOL - Dù Em Vẫn Biết
TTITLE2=Trà My IDOL - Nỗi Nhớ Trong Em
TTITLE3=Trà My IDOL Feat. Trịnh Thăng Bình - Biển Động
TTITLE4=Trà My IDOL - Anh Đâu Có Hay
TTITLE5=Trà My IDOL Feat Rapper DC - Go Round (Loanh Quanh)
TTITLE6=Trà My IDOL - Hãy Xoá Đi
EXTD=
EXTT0=
EXTT1=
EXTT2=
EXTT3=
EXTT4=
EXTT5=
EXTT6=
PLAYORDER=
